{
  "asset": {
    "generator": "glTF-Transform v4.0.1",
    "version": "2.0",
    "extras": {
      "author": "andersdt (https://sketchfab.com/andersdt)",
      "license": "CC-BY-4.0 (http://creativecommons.org/licenses/by/4.0/)",
      "source": "https://sketchfab.com/3d-models/explosion-46fb54741fbc4cc0854c03b5ef5d0624",
      "title": "Explosion"
    }
  },
  "accessors": [
    {
      "type": "VEC3",
      "componentType": 5126,
      "count": 10203,
      "max": [8.689970016479492, 5.092870235443115, 4.922150135040283],
      "min": [-5.193240165710449, -8.044469833374023, -8.354060173034668],
      "bufferView": 0,
      "byteOffset": 0
    },
    {
      "type": "VEC3",
      "componentType": 5126,
      "count": 10203,
      "bufferView": 0,
      "byteOffset": 12
    },
    {
      "type": "VEC4",
      "componentType": 5126,
      "count": 10203,
      "bufferView": 0,
      "byteOffset": 24
    },
    {
      "type": "VEC2",
      "componentType": 5126,
      "count": 10203,
      "bufferView": 0,
      "byteOffset": 40
    },
    {
      "type": "SCALAR",
      "componentType": 5125,
      "count": 59328,
      "bufferView": 1,
      "byteOffset": 0
    },
    {
      "type": "SCALAR",
      "componentType": 5125,
      "count": 4878,
      "bufferView": 1,
      "byteOffset": 237312
    },
    {
      "type": "VEC3",
      "componentType": 5126,
      "count": 4870,
      "max": [9.978289604187012, 8.547309875488281, 7.5171799659729],
      "min": [-8.382089614868164, -11.367730140686035, -10.349949836730957],
      "bufferView": 2,
      "byteOffset": 0
    },
    {
      "type": "VEC3",
      "componentType": 5126,
      "count": 4870,
      "bufferView": 2,
      "byteOffset": 12
    }
  ],
  "bufferViews": [
    {
      "buffer": 0,
      "byteOffset": 0,
      "byteLength": 489744,
      "byteStride": 48,
      "target": 34962
    },
    {
      "buffer": 0,
      "byteOffset": 489744,
      "byteLength": 256824,
      "target": 34963
    },
    {
      "buffer": 0,
      "byteOffset": 746568,
      "byteLength": 116880,
      "byteStride": 24,
      "target": 34962
    }
  ],
  "samplers": [
    { "magFilter": 9729, "minFilter": 9987, "wrapS": 10497, "wrapT": 10497 }
  ],
  "textures": [
    { "source": 0, "sampler": 0 },
    { "source": 1, "sampler": 0 }
  ],
  "images": [
    { "mimeType": "image/png", "uri": "textures/Fire_diffuse.png" },
    { "mimeType": "image/png", "uri": "textures/Fire_normal.png" }
  ],
  "buffers": [{ "uri": "scene.bin", "byteLength": 863448 }],
  "materials": [
    {
      "name": "Fire_pointy",
      "alphaMode": "BLEND",
      "doubleSided": true,
      "pbrMetallicRoughness": {
        "baseColorFactor": [1, 0.24383786812995056, 0, 0.58],
        "roughnessFactor": 0.36,
        "metallicFactor": 0
      },
      "extensions": {
        "KHR_materials_ior": { "ior": 1000 },
        "KHR_materials_specular": { "specularColorFactor": [0, 0, 0] }
      }
    },
    {
      "name": "Fire",
      "alphaMode": "BLEND",
      "doubleSided": true,
      "pbrMetallicRoughness": {
        "baseColorFactor": [
          0.7000000000000001, 0.7000000000000001, 0.7000000000000001, 0.48
        ],
        "roughnessFactor": 0.38,
        "metallicFactor": 0,
        "baseColorTexture": { "index": 0 }
      },
      "normalTexture": { "index": 1 },
      "extensions": {
        "KHR_materials_ior": { "ior": 1000 },
        "KHR_materials_specular": { "specularColorFactor": [0, 0, 0] }
      }
    }
  ],
  "meshes": [
    {
      "name": "Explosion",
      "primitives": [
        {
          "attributes": {
            "NORMAL": 1,
            "POSITION": 0,
            "TANGENT": 2,
            "TEXCOORD_0": 3
          },
          "mode": 4,
          "material": 1,
          "indices": 4
        }
      ]
    },
    {
      "name": "Explosion_pointy",
      "primitives": [
        {
          "attributes": { "NORMAL": 7, "POSITION": 6 },
          "mode": 4,
          "material": 0,
          "indices": 5
        }
      ]
    }
  ],
  "nodes": [
    {
      "name": "Sketchfab_model",
      "rotation": [-0.7071067811865475, 0, 0, 0.7071067811865476],
      "children": [1]
    },
    { "name": "Root", "children": [2, 4] },
    { "name": "Explosion", "children": [3] },
    { "name": "Explosion", "mesh": 0 },
    { "name": "Explosion_pointy", "children": [5] },
    { "name": "Explosion_pointy", "mesh": 1 }
  ],
  "scenes": [{ "name": "Sketchfab_Scene", "nodes": [0] }],
  "scene": 0,
  "extensionsUsed": ["KHR_materials_ior", "KHR_materials_specular"]
}
